<svg width="28" height="28" viewBox="0 0 28 28" fill="none" xmlns="http://www.w3.org/2000/svg">
<path d="M14.7299 24.7959C15.3611 24.7959 15.8678 24.5426 16.4788 23.9709L25.7544 15.2552C26.2103 14.8249 26.3859 14.3248 26.3859 13.898C26.3859 13.4531 26.222 12.9731 25.7566 12.5332L16.4788 3.88476C15.805 3.25453 15.3719 3 14.7491 3C13.8276 3 13.1531 3.72258 13.1531 4.6153V8.8193H12.8617C4.73547 8.8193 1 14.0424 1 22.5591C1 23.9909 1.62062 24.7474 2.43062 24.7474C3.03038 24.7474 3.60952 24.5627 4.06397 23.7157C5.91741 20.2528 8.55648 19.0052 12.8617 19.0052H13.1531V23.2308C13.1531 24.1235 13.8276 24.7959 14.7299 24.7959Z" />
</svg>
