<svg width="28" height="28" viewBox="0 0 28 28" fill="none" xmlns="http://www.w3.org/2000/svg">
<path d="M7.94792 18.8551H11.254C11.3607 18.8551 11.4481 18.8839 11.5259 18.95L16.4871 23.5853C17.0843 24.1431 17.5655 24.3826 18.1636 24.3826C18.832 24.3826 19.3481 24.0421 19.5715 23.3551L5.95058 9.74378C5.55801 10.1748 5.35059 10.824 5.35059 11.6872V16.1439C5.35059 17.9633 6.22972 18.8551 7.94792 18.8551ZM19.683 16.7645V4.97964C19.683 4.11456 19.0458 3.41964 18.1519 3.41964C17.5568 3.41964 17.1387 3.67417 16.4871 4.27675L11.9407 8.49598C11.8906 8.53652 11.8287 8.57918 11.7668 8.58129H11.4785L19.683 16.7645Z" />
<path d="M23.7703 25.5182C24.1345 25.8803 24.7394 25.8824 25.0898 25.5182C25.4519 25.1464 25.454 24.5628 25.0898 24.2007L4.60125 3.71426C4.23914 3.35004 3.63422 3.35004 3.27 3.71426C2.91 4.06676 2.91 4.68129 3.27 5.03379L23.7703 25.5182Z" />
</svg>
