<svg width="28" height="28" viewBox="0 0 28 28" fill="none" xmlns="http://www.w3.org/2000/svg">
<path d="M19.8226 24.9747C20.6952 24.9747 21.3325 24.3395 21.3325 23.4744V5.57171C21.3325 4.70664 20.6952 4.01172 19.8013 4.01172C19.2159 4.01172 18.7881 4.25664 18.1462 4.86883L13.2447 9.4593C13.1669 9.52539 13.0816 9.56055 12.9728 9.56055H9.64538C7.93679 9.56055 7 10.5175 7 12.3273V16.6783C7 18.4977 7.93679 19.4472 9.64538 19.4472H12.9707C13.0773 19.4472 13.1648 19.476 13.2426 19.5421L18.1462 24.1773C18.7337 24.7351 19.2245 24.9747 19.8226 24.9747Z" />
</svg>
