<svg width="24" height="24" viewBox="0 0 24 24" fill="none" xmlns="http://www.w3.org/2000/svg">
<path d="M11.9395 18.0583C15.2838 18.0583 18.068 15.2817 18.068 11.9395C18.068 8.58562 15.2838 5.81109 11.9395 5.81109C8.59523 5.81109 5.8207 8.58562 5.8207 11.9395C5.8207 15.288 8.59101 18.0583 11.9395 18.0583ZM1.45757 13.3971C2.2582 13.3971 2.91515 12.7401 2.91515 11.9395C2.91515 11.1293 2.2582 10.4819 1.45757 10.4819C0.656952 10.4819 0 11.1293 0 11.9395C0 12.7401 0.656952 13.3971 1.45757 13.3971ZM4.52226 5.97984C5.33249 5.97984 5.97984 5.32288 5.97984 4.52226C5.97984 3.72164 5.33249 3.06469 4.52226 3.06469C3.72375 3.06469 3.06469 3.72164 3.06469 4.52226C3.06469 5.32288 3.72375 5.97984 4.52226 5.97984ZM11.9395 2.91515C12.7401 2.91515 13.3971 2.2582 13.3971 1.45757C13.3971 0.656952 12.7401 0 11.9395 0C11.1389 0 10.4819 0.656952 10.4819 1.45757C10.4819 2.2582 11.1389 2.91515 11.9395 2.91515ZM19.3568 5.97984C20.1574 5.97984 20.8144 5.32288 20.8144 4.52226C20.8144 3.72164 20.1574 3.06469 19.3568 3.06469C18.5562 3.06469 17.8992 3.72164 17.8992 4.52226C17.8992 5.32288 18.5562 5.97984 19.3568 5.97984ZM22.4215 13.3971C23.2221 13.3971 23.879 12.7401 23.879 11.9395C23.879 11.1293 23.2221 10.4819 22.4215 10.4819C21.6208 10.4819 20.9639 11.1293 20.9639 11.9395C20.9639 12.7401 21.6208 13.3971 22.4215 13.3971ZM19.3568 20.8144C20.1574 20.8144 20.8144 20.1553 20.8144 19.3568C20.8144 18.5466 20.1574 17.8992 19.3568 17.8992C18.5562 17.8992 17.8992 18.5466 17.8992 19.3568C17.8992 20.1553 18.5562 20.8144 19.3568 20.8144ZM11.9395 23.879C12.7401 23.879 13.3971 23.2221 13.3971 22.4215C13.3971 21.6112 12.7401 20.9639 11.9395 20.9639C11.1389 20.9639 10.4819 21.6112 10.4819 22.4215C10.4819 23.2221 11.1389 23.879 11.9395 23.879ZM4.52226 20.8144C5.33249 20.8144 5.97984 20.1553 5.97984 19.3568C5.97984 18.5466 5.33249 17.8992 4.52226 17.8992C3.72375 17.8992 3.06469 18.5466 3.06469 19.3568C3.06469 20.1553 3.72375 20.8144 4.52226 20.8144Z" />
</svg>
