<svg width="27" height="21" viewBox="0 0 27 21" fill="none" xmlns="http://www.w3.org/2000/svg">
<path d="M13.1634 11.5296C13.6587 11.5296 14.1103 11.2964 14.6386 10.7681L24.855 0.625521C24.4045 0.218411 23.5938 0.0213013 22.4442 0.0213013H3.5496C2.54624 0.0213013 1.83374 0.208801 1.42382 0.587083L11.6883 10.7681C12.2091 11.2868 12.6586 11.5296 13.1634 11.5296ZM0.314062 18.5939L8.72367 10.2591L0.324373 1.9727C0.112734 2.33669 0 2.94981 0 3.81746V16.7676C0 17.6271 0.102187 18.2383 0.314062 18.5939ZM3.84421 20.5734H22.7388C23.7675 20.5734 24.4915 20.3754 24.9119 19.9856L16.3404 11.4792L15.6176 12.2116C14.7984 12.9998 14.0241 13.3598 13.1634 13.3598C12.2932 13.3598 11.5167 12.9998 10.7072 12.2116L9.97687 11.4834L1.42453 19.976C1.89726 20.3754 2.69812 20.5734 3.84421 20.5734ZM25.9861 18.5843C26.1862 18.2191 26.2905 17.6175 26.2905 16.7676V3.81746C26.2905 2.96903 26.1778 2.35591 25.9758 2.00153L17.5936 10.2591L25.9861 18.5843Z" />
</svg>
